# xmcd
#
# Track frame offsets: 
#        150
#        11944
#        23645
#        34921
#        45574
#        59619
#        71409
#        81425
#        93917
#        105282
#        121374
#        133364
#        143949
#        156905
#        170261
#
# Disc length: 2548 seconds
#
# Revision: 0
# Processed by: cddbd v1.5.2PL0 Copyright (c) Steve Scherf et al.
# Submitted via: ExactAudioCopy v1.0b3
#
DISCID=cd09f20f
DTITLE=Various Artist - An Introduction to Electric Blues Guitar
DYEAR=2007
DGENRE=Blues
TTITLE0=Otis Rush - All Your Love (I Miss Loving)
TTITLE1=Elmore James - Knockin' At Your Door
TTITLE2=Earl Hooker - The Leading Brand
TTITLE3=Lowell Fulson - Crying Won't Help
TTITLE4=Ike Turner - Down and Out
TTITLE5=Robert Lockwood, Jr. - Aw Aw Baby
TTITLE6=Clarence "Gatemouth" Brown - You Don't Treat Me Right
TTITLE7=Homesick James Williamson - Crossroads
TTITLE8=Lightnin’ Hopkins - Lightnin's Jump
TTITLE9=Magic Sam - Easy Baby
TTITLE10=Fenton Robinson - Say You're Leaving
TTITLE11=Albert Collins - Collins Shuffle
TTITLE12=J. B. Lenoir - The Mojo (Take 1)
TTITLE13=Buddy Guy - This Is The End
TTITLE14=Johnny Winter - Messin' With The Kid
EXTD=
EXTT0=
EXTT1=
EXTT2=
EXTT3=
EXTT4=
EXTT5=
EXTT6=
EXTT7=
EXTT8=
EXTT9=
EXTT10=
EXTT11=
EXTT12=
EXTT13=
EXTT14=
PLAYORDER=
